{"title":"Wild Card(2015)MPEG-4[DaScubaDude]","uid":13452890,"size":928675741,"categoryP":"video","categoryS":"movies","magnet":"?xt=urn:btih:5950904b6c2726a5cc795508c3adb90021a0bc8b&amp;dn=Wild+Card%282015%29MPEG-4%5BDaScubaDude%5D&amp;tr=udp%3A%2F%2Ftracker.leechers-paradise.org%3A6969&amp;tr=udp%3A%2F%2Fzer0day.ch%3A1337&amp;tr=udp%3A%2F%2Fopen.demonii.com%3A1337&amp;tr=udp%3A%2F%2Ftracker.coppersurfer.tk%3A6969&amp;tr=udp%3A%2F%2Fexodus.desync.com%3A6969","seeders":0,"leechers":0,"uploader":"dascuba","files":1,"time":1454818116,"description":"Wild Card (2015)\r\nR | 1h 32min | Action, Crime, Drama | 14 January 2015 (Belgium)\r\nWhen a Las Vegas bodyguard with lethal skills and a gambling problem gets in trouble with the mob, he has one last play...and it's all or nothing.\r\nDirector: Simon West\r\nWriters: William Goldman (screenplay), William Goldman (novel)\r\nStars: Jason Statham, Michael Angarano, Dominik García-Lorido \r\n\r\nGeneral\r\nComplete name                            :Wild CardWILD_CARD_Title66.mp4\r\nFormat                                   : MPEG-4\r\nFormat profile                           : Base Media\r\nCodec ID                                 : isom\r\nFile size                                : 886 MiB\r\nDuration                                 : 1h 32mn\r\nOverall bit rate                         : 1 342 Kbps\r\nMovie name                               : WILD_CARD\r\nGenre                                    : Action\r\nWriting application                      : Lavf54.6.100\r\n\r\nVideo\r\nID                                       : 1\r\nFormat                                   : AVC\r\nFormat/Info                              : Advanced Video Codec\r\nFormat profile                           :   \r\nFormat settings, CABAC                   : No\r\nFormat settings, ReFrames                : 6 frames\r\nCodec ID                                 : avc1\r\nCodec ID/Info                            : Advanced Video Coding\r\nDuration                                 : 1h 32mn\r\nBit rate                                 : 1 207 Kbps\r\nWidth                                    : 720 pixels\r\nHeight                                   : 404 pixels\r\nDisplay aspect ratio                     : 16:9\r\nFrame rate mode                          : Constant\r\nFrame rate                               : 29.970 fps\r\nColor space                              : YUV\r\nChroma subsampling                       : 4:2:0\r\nBit depth                                : 8 bits\r\nScan type                                : Progressive\r\nBits/(Pixel*Frame)                       : 0.138\r\nStream size                              : 797 MiB (90%)\r\n\r\nAudio\r\nID                                       : 2\r\nFormat                                   : AAC\r\nFormat/Info                              : Advanced Audio Codec\r\nFormat profile                           : LC\r\nCodec ID                                 : 40\r\nDuration                                 : 1h 32mn\r\nBit rate mode                            : Constant\r\nBit rate                                 : 128 Kbps\r\nChannel(s)                               : 2 channels\r\nChannel positions                        : Front: L R\r\nSampling rate                            : 44.1 KHz\r\nCompression mode                         : Lossy\r\nStream size                              : 84.5 MiB (10%)","torrent":{"xt":"urn:btih:5950904b6c2726a5cc795508c3adb90021a0bc8b","amp;dn":"Wild+Card%282015%29MPEG-4%5BDaScubaDude%5D","amp;tr":["udp%3A%2F%2Ftracker.leechers-paradise.org%3A6969","udp%3A%2F%2Fzer0day.ch%3A1337","udp%3A%2F%2Fopen.demonii.com%3A1337","udp%3A%2F%2Ftracker.coppersurfer.tk%3A6969","udp%3A%2F%2Fexodus.desync.com%3A6969"],"infoHash":"5950904b6c2726a5cc795508c3adb90021a0bc8b","infoHashBuffer":{"type":"Buffer","data":[89,80,144,75,108,39,38,165,204,121,85,8,195,173,185,0,33,160,188,139]},"announce":[],"urlList":[]}}